<svg width="26" height="28" viewBox="0 0 26 28" fill="none" xmlns="http://www.w3.org/2000/svg">
<path d="M23.8333 2.15385H19.5V0H17.3333V2.15385H8.66667V0H6.5V2.15385H2.16667C0.975 2.15385 0 3.12308 0 4.30769V25.8462C0 27.0308 0.975 28 2.16667 28H23.8333C25.025 28 26 27.0308 26 25.8462V4.30769C26 3.12308 25.025 2.15385 23.8333 2.15385ZM23.8333 25.8462H2.16667V10.7692H23.8333V25.8462ZM23.8333 8.61539H2.16667V4.30769H6.5V6.46154H8.66667V4.30769H17.3333V6.46154H19.5V4.30769H23.8333V8.61539Z" fill="#6C7293"/>
</svg>
