<svg width="20" height="28" viewBox="0 0 20 28" fill="none" xmlns="http://www.w3.org/2000/svg">
<path d="M17.8676 28H1.98529C1.45892 27.9995 0.954261 27.7886 0.58206 27.4136C0.209859 27.0387 0.000525583 26.5303 0 26V2C0.000525583 1.46973 0.209859 0.961329 0.58206 0.586371C0.954261 0.211413 1.45892 0.000529477 1.98529 0H17.8676C18.394 0.000529477 18.8987 0.211413 19.2709 0.586371C19.6431 0.961329 19.8524 1.46973 19.8529 2V18.618L14.8897 16.118L9.92647 18.618V2H1.98529V26H17.8676V22H19.8529V26C19.8522 26.5302 19.6427 27.0384 19.2706 27.4133C18.8984 27.7882 18.3939 27.9992 17.8676 28ZM14.8897 13.882L17.8676 15.382V2H11.9118V15.382L14.8897 13.882Z" fill="#6C7293"/>
</svg>
