<svg width="27" height="27" viewBox="0 0 27 27" fill="none" xmlns="http://www.w3.org/2000/svg">
<path d="M0 22.5H11.25V24.75H0V22.5ZM0 15.75H11.25V18H0V15.75ZM24.75 11.25H2.25C1.65326 11.25 1.08097 11.0129 0.65901 10.591C0.237053 10.169 0 9.59674 0 9V2.25C0 1.65326 0.237053 1.08097 0.65901 0.65901C1.08097 0.237053 1.65326 0 2.25 0H24.75C25.3467 0 25.919 0.237053 26.341 0.65901C26.7629 1.08097 27 1.65326 27 2.25V9C27 9.59674 26.7629 10.169 26.341 10.591C25.919 11.0129 25.3467 11.25 24.75 11.25ZM2.25 2.25V9H24.75V2.25H2.25ZM24.75 27H18C17.4033 27 16.831 26.7629 16.409 26.341C15.9871 25.919 15.75 25.3467 15.75 24.75V18C15.75 17.4033 15.9871 16.831 16.409 16.409C16.831 15.9871 17.4033 15.75 18 15.75H24.75C25.3467 15.75 25.919 15.9871 26.341 16.409C26.7629 16.831 27 17.4033 27 18V24.75C27 25.3467 26.7629 25.919 26.341 26.341C25.919 26.7629 25.3467 27 24.75 27ZM18 18V24.75H24.75V18H18Z" fill="#6C7293"/>
</svg>
