<svg width="28" height="24" viewBox="0 0 28 24" fill="none" xmlns="http://www.w3.org/2000/svg">
<path fill-rule="evenodd" clip-rule="evenodd" d="M24.6667 0C25.3739 0 26.0522 0.280951 26.5523 0.781048C27.0524 1.28115 27.3334 1.95942 27.3334 2.66667V21.3333C27.3334 22.0406 27.0524 22.7189 26.5523 23.219C26.0522 23.719 25.3739 24 24.6667 24H3.33335C2.62611 24 1.94783 23.719 1.44774 23.219C0.947638 22.7189 0.666687 22.0406 0.666687 21.3333V2.66667C0.666687 1.95942 0.947638 1.28115 1.44774 0.781048C1.94783 0.280951 2.62611 0 3.33335 0H24.6667ZM24.6667 2.66667H3.33335V21.3333H24.6667V2.66667ZM20.6667 16C21.0065 16.0004 21.3334 16.1305 21.5805 16.3638C21.8276 16.5971 21.9763 16.9159 21.9963 17.2552C22.0162 17.5944 21.9058 17.9285 21.6877 18.1891C21.4695 18.4497 21.1601 18.6172 20.8227 18.6573L20.6667 18.6667H7.33335C6.99351 18.6663 6.66664 18.5362 6.41953 18.3029C6.17241 18.0696 6.02371 17.7507 6.00379 17.4115C5.98388 17.0722 6.09425 16.7382 6.31237 16.4776C6.53049 16.217 6.83989 16.0495 7.17735 16.0093L7.33335 16H20.6667ZM11.3334 5.33333C12.0406 5.33333 12.7189 5.61428 13.219 6.11438C13.7191 6.61448 14 7.29276 14 8V10.6667C14 11.3739 13.7191 12.0522 13.219 12.5523C12.7189 13.0524 12.0406 13.3333 11.3334 13.3333H8.66669C7.95944 13.3333 7.28117 13.0524 6.78107 12.5523C6.28097 12.0522 6.00002 11.3739 6.00002 10.6667V8C6.00002 7.29276 6.28097 6.61448 6.78107 6.11438C7.28117 5.61428 7.95944 5.33333 8.66669 5.33333H11.3334ZM20.6667 10.6667C21.0203 10.6667 21.3594 10.8071 21.6095 11.0572C21.8595 11.3072 22 11.6464 22 12C22 12.3536 21.8595 12.6928 21.6095 12.9428C21.3594 13.1929 21.0203 13.3333 20.6667 13.3333H16.6667C16.3131 13.3333 15.9739 13.1929 15.7239 12.9428C15.4738 12.6928 15.3334 12.3536 15.3334 12C15.3334 11.6464 15.4738 11.3072 15.7239 11.0572C15.9739 10.8071 16.3131 10.6667 16.6667 10.6667H20.6667ZM11.3334 8H8.66669V10.6667H11.3334V8ZM20.6667 5.33333C21.0065 5.33371 21.3334 5.46384 21.5805 5.69713C21.8276 5.93042 21.9763 6.24927 21.9963 6.58853C22.0162 6.92778 21.9058 7.26184 21.6877 7.52244C21.4695 7.78305 21.1601 7.95053 20.8227 7.99067L20.6667 8H16.6667C16.3268 7.99962 16 7.86949 15.7529 7.6362C15.5057 7.40291 15.357 7.08406 15.3371 6.74481C15.3172 6.40555 15.4276 6.07149 15.6457 5.81089C15.8638 5.55029 16.1732 5.3828 16.5107 5.34267L16.6667 5.33333H20.6667Z" fill="#6C7293"/>
</svg>
