<svg width="29" height="24" viewBox="0 0 29 24" fill="none" xmlns="http://www.w3.org/2000/svg">
<path d="M4.66666 13.5733V17.32C4.66666 18.2933 5.19999 19.2 6.05333 19.6667L12.72 23.3067C13.52 23.7467 14.48 23.7467 15.28 23.3067L21.9467 19.6667C22.8 19.2 23.3333 18.2933 23.3333 17.32V13.5733L15.28 17.9733C14.48 18.4133 13.52 18.4133 12.72 17.9733L4.66666 13.5733ZM12.72 0.693333L1.47999 6.82667C0.559993 7.33333 0.559993 8.66667 1.47999 9.17333L12.72 15.3067C13.52 15.7467 14.48 15.7467 15.28 15.3067L26 9.45333V17.3333C26 18.0667 26.6 18.6667 27.3333 18.6667C28.0667 18.6667 28.6667 18.0667 28.6667 17.3333V8.78667C28.6667 8.29333 28.4 7.85333 27.9733 7.61333L15.28 0.693333C14.8861 0.483233 14.4465 0.373333 14 0.373333C13.5535 0.373333 13.1139 0.483233 12.72 0.693333Z" fill="#6C7293"/>
</svg>
