<svg width="50" height="50" viewBox="0 0 50 50" fill="none" xmlns="http://www.w3.org/2000/svg">
<path fill-rule="evenodd" clip-rule="evenodd" d="M34.0909 18.1818C34.0909 20.5929 33.1331 22.9052 31.4283 24.6101C29.7234 26.3149 27.4111 27.2727 25 27.2727C22.589 27.2727 20.2767 26.3149 18.5718 24.6101C16.8669 22.9052 15.9091 20.5929 15.9091 18.1818C15.9091 15.7708 16.8669 13.4585 18.5718 11.7536C20.2767 10.0487 22.589 9.09091 25 9.09091C27.4111 9.09091 29.7234 10.0487 31.4283 11.7536C33.1331 13.4585 34.0909 15.7708 34.0909 18.1818ZM29.5455 18.1818C29.5455 19.3874 29.0666 20.5435 28.2141 21.3959C27.3617 22.2484 26.2056 22.7273 25 22.7273C23.7945 22.7273 22.6383 22.2484 21.7859 21.3959C20.9335 20.5435 20.4546 19.3874 20.4546 18.1818C20.4546 16.9763 20.9335 15.8201 21.7859 14.9677C22.6383 14.1153 23.7945 13.6364 25 13.6364C26.2056 13.6364 27.3617 14.1153 28.2141 14.9677C29.0666 15.8201 29.5455 16.9763 29.5455 18.1818Z" fill="#6C7293"/>
<path fill-rule="evenodd" clip-rule="evenodd" d="M25 0C11.1932 0 0 11.1932 0 25C0 38.8068 11.1932 50 25 50C38.8068 50 50 38.8068 50 25C50 11.1932 38.8068 0 25 0ZM4.54545 25C4.54545 29.75 6.16591 34.1227 8.88182 37.5955C10.7892 35.0907 13.2498 33.0608 16.0714 31.6643C18.8931 30.2679 21.9994 29.5427 25.1477 29.5455C28.2553 29.5425 31.3225 30.2489 34.1158 31.6109C36.909 32.9728 39.3545 34.9544 41.2659 37.4045C43.2351 34.8218 44.561 31.8073 45.1339 28.6104C45.7067 25.4136 45.5101 22.1262 44.5602 19.0204C43.6104 15.9146 41.9346 13.0797 39.6716 10.7501C37.4085 8.42052 34.6233 6.66332 31.5463 5.62388C28.4693 4.58445 25.1891 4.29266 21.977 4.77267C18.7648 5.25267 15.7132 6.49066 13.0745 8.38421C10.4358 10.2778 8.28593 12.7724 6.80279 15.6618C5.31965 18.5512 4.54587 21.7522 4.54545 25ZM25 45.4545C20.3044 45.4616 15.7506 43.8462 12.1091 40.8818C13.5748 38.7835 15.5258 37.0703 17.7959 35.8879C20.066 34.7056 22.5882 34.0891 25.1477 34.0909C27.6754 34.0889 30.167 34.6899 32.4157 35.8441C34.6645 36.9984 36.6054 38.6724 38.0773 40.7273C34.4075 43.788 29.7786 45.4613 25 45.4545Z" fill="#6C7293"/>
</svg>
