<svg width="28" height="27" viewBox="0 0 28 27" fill="none" xmlns="http://www.w3.org/2000/svg">
<path d="M24.6667 20C25.3739 20 26.0522 19.719 26.5523 19.219C27.0524 18.7189 27.3333 18.0406 27.3333 17.3333V2.66667C27.3333 1.95942 27.0524 1.28115 26.5523 0.781048C26.0522 0.280951 25.3739 0 24.6667 0H10.6133C11.08 0.813333 11.3333 1.73333 11.3333 2.66667H24.6667V17.3333H12.6667V20M18 6.66667V9.33333H10V26.6667H7.33333V18.6667H4.66667V26.6667H2V16H0V9.33333C0 8.62609 0.280951 7.94781 0.781048 7.44772C1.28115 6.94762 1.95942 6.66667 2.66667 6.66667H18ZM8.66667 2.66667C8.66667 3.37391 8.38572 4.05219 7.88562 4.55229C7.38552 5.05238 6.70724 5.33333 6 5.33333C5.29276 5.33333 4.61448 5.05238 4.11438 4.55229C3.61428 4.05219 3.33333 3.37391 3.33333 2.66667C3.33333 1.95942 3.61428 1.28115 4.11438 0.781048C4.61448 0.280951 5.29276 0 6 0C6.70724 0 7.38552 0.280951 7.88562 0.781048C8.38572 1.28115 8.66667 1.95942 8.66667 2.66667Z" fill="#6C7293"/>
</svg>
