<svg width="26" height="31" viewBox="0 0 26 31" fill="none" xmlns="http://www.w3.org/2000/svg">
<path d="M12 30.12V25.32C5.32 24.9733 0 19.4267 0 12.6667C0 5.68 5.68 0 12.6667 0C19.6533 0 25.3333 5.68 25.3333 12.6667C25.3333 19.2667 20.7467 25.9067 13.9067 29.2L12 30.12ZM12.6667 2.66667C7.14667 2.66667 2.66667 7.14667 2.66667 12.6667C2.66667 18.1867 7.14667 22.6667 12.6667 22.6667H14.6667V25.7333C19.52 22.6667 22.6667 17.6267 22.6667 12.6667C22.6667 7.14667 18.1867 2.66667 12.6667 2.66667ZM11.3333 18H14V20.6667H11.3333V18ZM14 16H11.3333C11.3333 11.6667 15.3333 12 15.3333 9.33333C15.3333 7.86667 14.1333 6.66667 12.6667 6.66667C11.2 6.66667 10 7.86667 10 9.33333H7.33333C7.33333 6.38667 9.72 4 12.6667 4C15.6133 4 18 6.38667 18 9.33333C18 12.6667 14 13 14 16Z" fill="#6C7293"/>
</svg>
