<svg width="18" height="24" viewBox="0 0 18 24" fill="none" xmlns="http://www.w3.org/2000/svg">
<path d="M15.75 24H2.25C1.65351 23.9992 1.08167 23.7619 0.659886 23.3401C0.238101 22.9183 0.000793738 22.3465 0 21.75V11.25C0 10.009 1.01 9 2.25 9H15.75C16.99 9 18 10.009 18 11.25V21.75C18 22.991 16.99 24 15.75 24ZM2.25 10.5C2.05109 10.5 1.86032 10.579 1.71967 10.7197C1.57902 10.8603 1.5 11.0511 1.5 11.25V21.75C1.5 22.164 1.837 22.5 2.25 22.5H15.75C15.9489 22.5 16.1397 22.421 16.2803 22.2803C16.421 22.1397 16.5 21.9489 16.5 21.75V11.25C16.5 11.0511 16.421 10.8603 16.2803 10.7197C16.1397 10.579 15.9489 10.5 15.75 10.5H2.25Z" fill="white"/>
<path d="M14.25 10.5C14.0511 10.5 13.8603 10.421 13.7197 10.2803C13.579 10.1397 13.5 9.94891 13.5 9.75V6C13.5 3.519 11.481 1.5 9 1.5C6.519 1.5 4.5 3.519 4.5 6V9.75C4.5 9.94891 4.42098 10.1397 4.28033 10.2803C4.13968 10.421 3.94891 10.5 3.75 10.5C3.55109 10.5 3.36032 10.421 3.21967 10.2803C3.07902 10.1397 3 9.94891 3 9.75V6C3 2.691 5.691 0 9 0C12.309 0 15 2.691 15 6V9.75C15 9.94891 14.921 10.1397 14.7803 10.2803C14.6397 10.421 14.4489 10.5 14.25 10.5ZM9 17C7.897 17 7 16.103 7 15C7 13.897 7.897 13 9 13C10.103 13 11 13.897 11 15C11 16.103 10.103 17 9 17ZM9 14.5C8.86713 14.5003 8.7398 14.5533 8.64603 14.6474C8.55226 14.7416 8.49973 14.8691 8.5 15.002C8.50027 15.1349 8.5533 15.2622 8.64745 15.356C8.74159 15.4497 8.86913 15.5023 9.002 15.502C9.06779 15.5019 9.13291 15.4888 9.19365 15.4635C9.25438 15.4382 9.30954 15.4012 9.35597 15.3546C9.4024 15.3079 9.43919 15.2526 9.46425 15.1918C9.4893 15.131 9.50213 15.0658 9.502 15C9.50187 14.9342 9.48878 14.8691 9.46348 14.8084C9.43818 14.7476 9.40117 14.6925 9.35455 14.646C9.30794 14.5996 9.25263 14.5628 9.1918 14.5378C9.13097 14.5127 9.06579 14.4999 9 14.5Z" fill="white"/>
<path d="M9 20C8.80109 20 8.61032 19.921 8.46967 19.7803C8.32902 19.6397 8.25 19.4489 8.25 19.25V16.5C8.25 16.3011 8.32902 16.1103 8.46967 15.9697C8.61032 15.829 8.80109 15.75 9 15.75C9.19891 15.75 9.38968 15.829 9.53033 15.9697C9.67098 16.1103 9.75 16.3011 9.75 16.5V19.25C9.75 19.4489 9.67098 19.6397 9.53033 19.7803C9.38968 19.921 9.19891 20 9 20Z" fill="white"/>
</svg>
