<svg width="31" height="24" viewBox="0 0 31 24" fill="none" xmlns="http://www.w3.org/2000/svg">
<path d="M6.34109 11.2941C7.03782 11.2941 7.7189 11.0871 8.29821 10.6993C8.87752 10.3115 9.32904 9.76027 9.59566 9.11535C9.86229 8.47044 9.93205 7.76079 9.79613 7.07615C9.6602 6.39151 9.32469 5.76263 8.83203 5.26904C8.33937 4.77544 7.71168 4.43929 7.02834 4.30311C6.34499 4.16693 5.63669 4.23682 4.993 4.50396C4.3493 4.77109 3.79913 5.22346 3.41205 5.80387C3.02496 6.38428 2.81836 7.06666 2.81836 7.76471C2.81948 8.70042 3.19098 9.59749 3.85138 10.2591C4.51178 10.9208 5.40715 11.293 6.34109 11.2941ZM6.34109 5.64706C6.75912 5.64706 7.16778 5.77126 7.51536 6.00395C7.86295 6.23664 8.13386 6.56737 8.29383 6.95432C8.45381 7.34127 8.49567 7.76706 8.41411 8.17784C8.33256 8.58862 8.13125 8.96595 7.83565 9.26211C7.54006 9.55827 7.16344 9.75995 6.75344 9.84166C6.34343 9.92337 5.91845 9.88144 5.53223 9.72116C5.14602 9.56088 4.81591 9.28945 4.58366 8.94121C4.35141 8.59296 4.22745 8.18354 4.22745 7.76471C4.22745 7.20307 4.45014 6.66444 4.84652 6.2673C5.2429 5.87017 5.78052 5.64706 6.34109 5.64706ZM24.6593 11.2941C25.356 11.2941 26.0371 11.0871 26.6164 10.6993C27.1957 10.3115 27.6472 9.76027 27.9138 9.11535C28.1805 8.47044 28.2502 7.76079 28.1143 7.07615C27.9784 6.39151 27.6429 5.76263 27.1502 5.26904C26.6576 4.77544 26.0299 4.43929 25.3465 4.30311C24.6632 4.16693 23.9549 4.23682 23.3112 4.50396C22.6675 4.77109 22.1173 5.22346 21.7302 5.80387C21.3431 6.38428 21.1365 7.06666 21.1365 7.76471C21.1377 8.70042 21.5092 9.59749 22.1696 10.2591C22.83 10.9208 23.7253 11.293 24.6593 11.2941ZM24.6593 5.64706C25.0773 5.64706 25.486 5.77126 25.8335 6.00395C26.1811 6.23664 26.452 6.56737 26.612 6.95432C26.772 7.34127 26.8139 7.76706 26.7323 8.17784C26.6507 8.58862 26.4494 8.96595 26.1538 9.26211C25.8582 9.55827 25.4816 9.75995 25.0716 9.84166C24.6616 9.92337 24.2366 9.88144 23.8504 9.72116C23.4642 9.56088 23.1341 9.28945 22.9018 8.94121C22.6696 8.59296 22.5456 8.18354 22.5456 7.76471C22.5456 7.20307 22.7683 6.66444 23.1647 6.2673C23.5611 5.87017 24.0987 5.64706 24.6593 5.64706ZM15.5002 7.05882C16.1969 7.05882 16.878 6.85183 17.4573 6.46401C18.0366 6.0762 18.4881 5.52498 18.7548 4.88006C19.0214 4.23514 19.0911 3.5255 18.9552 2.84086C18.8193 2.15622 18.4838 1.52734 17.9911 1.03374C17.4985 0.540145 16.8708 0.204001 16.1874 0.0678182C15.5041 -0.0683649 14.7958 0.00152924 14.1521 0.268662C13.5084 0.535795 12.9582 0.988168 12.5711 1.56858C12.1841 2.14899 11.9775 2.83136 11.9775 3.52941C11.9786 4.46513 12.3501 5.3622 13.0105 6.02385C13.6709 6.6855 14.5662 7.0577 15.5002 7.05882ZM15.5002 1.41177C15.9182 1.41177 16.3269 1.53596 16.6745 1.76865C17.022 2.00134 17.2929 2.33208 17.4529 2.71902C17.6129 3.10597 17.6548 3.53176 17.5732 3.94255C17.4916 4.35333 17.2903 4.73066 16.9947 5.02682C16.6991 5.32297 16.3225 5.52466 15.9125 5.60637C15.5025 5.68808 15.0775 5.64614 14.6913 5.48586C14.3051 5.32558 13.975 5.05416 13.7428 4.70591C13.5105 4.35767 13.3865 3.94824 13.3865 3.52941C13.3865 2.96778 13.6092 2.42915 14.0056 2.03201C14.402 1.63487 14.9396 1.41177 15.5002 1.41177Z" fill="white"/>
<path d="M27.4773 12.7058H21.8409V11.9999C21.8398 11.0642 21.4683 10.1671 20.8079 9.5055C20.1475 8.84385 19.2521 8.47164 18.3182 8.47052H12.6818C11.7479 8.47164 10.8525 8.84385 10.1921 9.5055C9.53171 10.1671 9.16021 11.0642 9.15909 11.9999V12.7058H3.52273C2.58879 12.7069 1.69342 13.0791 1.03302 13.7408C0.372621 14.4024 0.00111872 15.2995 0 16.2352V23.294C0 23.4813 0.0742287 23.6608 0.206357 23.7932C0.338484 23.9256 0.517688 23.9999 0.704545 23.9999H11.9773C12.1641 23.9999 12.3433 23.9256 12.4755 23.7932C12.6076 23.6608 12.6818 23.4813 12.6818 23.294V19.7646H18.3182V23.294C18.3182 23.4813 18.3924 23.6608 18.5245 23.7932C18.6567 23.9256 18.8359 23.9999 19.0227 23.9999H30.2955C30.4823 23.9999 30.6615 23.9256 30.7936 23.7932C30.9258 23.6608 31 23.4813 31 23.294V16.2352C30.9989 15.2995 30.6274 14.4024 29.967 13.7408C29.3066 13.0791 28.4112 12.7069 27.4773 12.7058ZM11.2727 22.5882H1.40909V16.2352C1.40909 15.6736 1.63178 15.135 2.02816 14.7378C2.42454 14.3407 2.96216 14.1176 3.52273 14.1176H9.15909C9.33162 14.1197 9.50322 14.1434 9.66989 14.1882C10.124 14.3063 10.5268 14.5706 10.8164 14.9404C11.106 15.3103 11.2663 15.7652 11.2727 16.2352V22.5882ZM12.6818 18.3529V16.2352C12.6731 15.5511 12.4695 14.8836 12.0951 14.3114C11.7206 13.7392 11.1909 13.286 10.5682 13.0051V11.9999C10.5682 11.4383 10.7909 10.8997 11.1873 10.5025C11.5836 10.1054 12.1212 9.88228 12.6818 9.88228H18.3182C18.8788 9.88228 19.4164 10.1054 19.8127 10.5025C20.2091 10.8997 20.4318 11.4383 20.4318 11.9999V13.0051C19.8091 13.286 19.2794 13.7392 18.9049 14.3114C18.5305 14.8836 18.3269 15.5511 18.3182 16.2352V18.3529H12.6818ZM29.5909 22.5882H19.7273V16.2352C19.7326 15.7682 19.8906 15.3157 20.1771 14.9472C20.4635 14.5786 20.8626 14.3142 21.3132 14.1945C21.3195 14.1945 21.3238 14.1889 21.3301 14.1875C21.4968 14.143 21.6684 14.1195 21.8409 14.1176H27.4773C28.0378 14.1176 28.5755 14.3407 28.9718 14.7378C29.3682 15.135 29.5909 15.6736 29.5909 16.2352V22.5882Z" fill="white"/>
</svg>
