<svg width="11" height="18" viewBox="0 0 11 18" fill="none" xmlns="http://www.w3.org/2000/svg">
<path d="M4.5 18V15.8824H2.5V13.7647H4.5V11.5412C3.18333 11.2941 2.104 10.6278 1.262 9.54212C0.420001 8.45647 -0.000665875 7.19929 7.91139e-07 5.77059C7.91139e-07 4.16471 0.537667 2.80165 1.613 1.68141C2.68833 0.561176 3.984 0.000705882 5.5 0C7.01667 0 8.31267 0.56047 9.388 1.68141C10.4633 2.80235 11.0007 4.16541 11 5.77059C11 7.2 10.579 8.45753 9.737 9.54318C8.895 10.6288 7.816 11.2948 6.5 11.5412V13.7647H8.5V15.8824H6.5V18H4.5ZM5.5 9.52941C6.46667 9.52941 7.29167 9.16765 7.975 8.44412C8.65833 7.72059 9 6.84706 9 5.82353C9 4.8 8.65833 3.92647 7.975 3.20294C7.29167 2.47941 6.46667 2.11765 5.5 2.11765C4.53333 2.11765 3.70833 2.47941 3.025 3.20294C2.34167 3.92647 2 4.8 2 5.82353C2 6.84706 2.34167 7.72059 3.025 8.44412C3.70833 9.16765 4.53333 9.52941 5.5 9.52941Z" fill="#6C7293"/>
</svg>
