<svg width="32" height="24" viewBox="0 0 32 24" fill="none" xmlns="http://www.w3.org/2000/svg">
<path fill-rule="evenodd" clip-rule="evenodd" d="M9.58621 2.52666C9.85086 2.24185 9.99494 1.86515 9.98809 1.47592C9.98124 1.08669 9.824 0.715321 9.54949 0.44005C9.27499 0.16478 8.90465 0.00710159 8.5165 0.000234072C8.12836 -0.00663345 7.7527 0.137846 7.46868 0.403234L3.53329 4.3496L2.59438 3.40808C2.31037 3.1427 1.93471 2.99822 1.54656 3.00508C1.15841 3.01195 0.788077 3.16963 0.513572 3.4449C0.239067 3.72017 0.0818273 4.09154 0.0749789 4.48077C0.0681305 4.87 0.212208 5.2467 0.476859 5.53151L2.47452 7.53474C2.75545 7.8161 3.13625 7.97413 3.53329 7.97413C3.93032 7.97413 4.31112 7.8161 4.59205 7.53474L9.58621 2.52666ZM12.0234 3.46818C12.0234 3.06971 12.1812 2.68757 12.4622 2.40581C12.7432 2.12405 13.1242 1.96576 13.5216 1.96576H30.5018C30.8991 1.96576 31.2802 2.12405 31.5612 2.40581C31.8421 2.68757 32 3.06971 32 3.46818C32 3.86665 31.8421 4.2488 31.5612 4.53056C31.2802 4.81232 30.8991 4.97061 30.5018 4.97061H13.5216C13.1242 4.97061 12.7432 4.81232 12.4622 4.53056C12.1812 4.2488 12.0234 3.86665 12.0234 3.46818ZM12.0234 11.9819C12.0234 11.5835 12.1812 11.2013 12.4622 10.9195C12.7432 10.6378 13.1242 10.4795 13.5216 10.4795H30.5018C30.8991 10.4795 31.2802 10.6378 31.5612 10.9195C31.8421 11.2013 32 11.5835 32 11.9819C32 12.3804 31.8421 12.7625 31.5612 13.0443C31.2802 13.3261 30.8991 13.4843 30.5018 13.4843H13.5216C13.1242 13.4843 12.7432 13.3261 12.4622 13.0443C12.1812 12.7625 12.0234 12.3804 12.0234 11.9819ZM13.5216 18.9932C13.1242 18.9932 12.7432 19.1515 12.4622 19.4333C12.1812 19.715 12.0234 20.0972 12.0234 20.4957C12.0234 20.8941 12.1812 21.2763 12.4622 21.558C12.7432 21.8398 13.1242 21.9981 13.5216 21.9981H30.5018C30.8991 21.9981 31.2802 21.8398 31.5612 21.558C31.8421 21.2763 32 20.8941 32 20.4957C32 20.0972 31.8421 19.715 31.5612 19.4333C31.2802 19.1515 30.8991 18.9932 30.5018 18.9932H13.5216ZM9.58621 16.4291C9.86678 16.7108 10.0244 17.0927 10.0244 17.4908C10.0244 17.889 9.86678 18.2708 9.58621 18.5525L4.59205 23.5606C4.31112 23.842 3.93032 24 3.53329 24C3.13625 24 2.75545 23.842 2.47452 23.5606L0.476859 21.5574C0.329658 21.4198 0.211591 21.254 0.129703 21.0697C0.0478148 20.8854 0.00378259 20.6864 0.000233169 20.4847C-0.00331625 20.283 0.0336898 20.0826 0.109044 19.8955C0.184398 19.7084 0.296556 19.5385 0.438827 19.3958C0.581098 19.2531 0.750567 19.1407 0.937126 19.0651C1.12368 18.9895 1.32351 18.9524 1.52468 18.956C1.72585 18.9596 1.92424 19.0037 2.10803 19.0858C2.29181 19.1679 2.45722 19.2863 2.59438 19.434L3.53329 20.3755L7.46868 16.4291C7.74961 16.1477 8.13041 15.9897 8.52744 15.9897C8.92448 15.9897 9.30529 16.1477 9.58621 16.4291Z" fill="#6C7293"/>
</svg>
