<svg width="18" height="18" viewBox="0 0 18 18" fill="none" xmlns="http://www.w3.org/2000/svg">
<path d="M18 0V6.75H15.75V3.85313L11.2781 8.29688C11.6344 8.82188 11.9062 9.37987 12.0938 9.97087C12.2813 10.5619 12.375 11.1758 12.375 11.8125C12.375 13.5375 11.775 15 10.575 16.2C9.375 17.4 7.9125 18 6.1875 18C4.4625 18 3 17.4 1.8 16.2C0.6 15 0 13.5375 0 11.8125C0 10.0875 0.6 8.625 1.8 7.425C3 6.225 4.4625 5.625 6.1875 5.625C6.80625 5.625 7.41562 5.71388 8.01562 5.89163C8.61563 6.06938 9.16875 6.34613 9.675 6.72188L14.1469 2.25H11.25V0H18ZM6.1875 7.875C5.1 7.875 4.17188 8.25937 3.40313 9.02812C2.63438 9.79687 2.25 10.725 2.25 11.8125C2.25 12.9 2.63438 13.8281 3.40313 14.5969C4.17188 15.3656 5.1 15.75 6.1875 15.75C7.275 15.75 8.20313 15.3656 8.97188 14.5969C9.74063 13.8281 10.125 12.9 10.125 11.8125C10.125 10.725 9.74063 9.79687 8.97188 9.02812C8.20313 8.25937 7.275 7.875 6.1875 7.875Z" fill="#6C7293"/>
</svg>
