<svg width="30" height="23" viewBox="0 0 30 23" fill="none" xmlns="http://www.w3.org/2000/svg">
<path d="M6.33333 10.6667C6.9926 10.6667 7.63707 10.4712 8.18523 10.1049C8.7334 9.73863 9.16064 9.21803 9.41293 8.60895C9.66522 7.99986 9.73124 7.32964 9.60262 6.68303C9.474 6.03643 9.15653 5.44249 8.69036 4.97631C8.22418 4.51014 7.63024 4.19267 6.98363 4.06405C6.33703 3.93543 5.66681 4.00144 5.05772 4.25374C4.44864 4.50603 3.92804 4.93327 3.56177 5.48143C3.1955 6.0296 3 6.67406 3 7.33333C3.00106 8.21706 3.35259 9.0643 3.97748 9.68919C4.60237 10.3141 5.4496 10.6656 6.33333 10.6667ZM6.33333 5.33333C6.7289 5.33333 7.11558 5.45063 7.44447 5.6704C7.77337 5.89016 8.02972 6.20252 8.18109 6.56797C8.33247 6.93342 8.37208 7.33555 8.2949 7.72352C8.21773 8.11148 8.02725 8.46784 7.74755 8.74755C7.46784 9.02725 7.11148 9.21774 6.72351 9.29491C6.33555 9.37208 5.93342 9.33247 5.56797 9.18109C5.20251 9.02972 4.89016 8.77337 4.67039 8.44447C4.45063 8.11558 4.33333 7.7289 4.33333 7.33333C4.33333 6.8029 4.54405 6.29419 4.91912 5.91912C5.29419 5.54405 5.8029 5.33333 6.33333 5.33333ZM23.6667 10.6667C24.3259 10.6667 24.9704 10.4712 25.5186 10.1049C26.0667 9.73863 26.494 9.21803 26.7463 8.60895C26.9986 7.99986 27.0646 7.32964 26.936 6.68303C26.8073 6.03643 26.4899 5.44249 26.0237 4.97631C25.5575 4.51014 24.9636 4.19267 24.317 4.06405C23.6704 3.93543 23.0001 4.00144 22.3911 4.25374C21.782 4.50603 21.2614 4.93327 20.8951 5.48143C20.5288 6.0296 20.3333 6.67406 20.3333 7.33333C20.3344 8.21706 20.6859 9.0643 21.3108 9.68919C21.9357 10.3141 22.7829 10.6656 23.6667 10.6667ZM23.6667 5.33333C24.0622 5.33333 24.4489 5.45063 24.7778 5.6704C25.1067 5.89016 25.3631 6.20252 25.5144 6.56797C25.6658 6.93342 25.7054 7.33555 25.6282 7.72352C25.5511 8.11148 25.3606 8.46784 25.0809 8.74755C24.8012 9.02725 24.4448 9.21774 24.0568 9.29491C23.6689 9.37208 23.2668 9.33247 22.9013 9.18109C22.5359 9.02972 22.2235 8.77337 22.0037 8.44447C21.784 8.11558 21.6667 7.7289 21.6667 7.33333C21.6667 6.8029 21.8774 6.29419 22.2525 5.91912C22.6275 5.54405 23.1362 5.33333 23.6667 5.33333ZM15 6.66667C15.6593 6.66667 16.3037 6.47117 16.8519 6.1049C17.4001 5.73863 17.8273 5.21803 18.0796 4.60895C18.3319 3.99986 18.3979 3.32964 18.2693 2.68303C18.1407 2.03643 17.8232 1.44249 17.357 0.976312C16.8908 0.510137 16.2969 0.192668 15.6503 0.0640506C15.0037 -0.0645668 14.3335 0.00144428 13.7244 0.253736C13.1153 0.506029 12.5947 0.93327 12.2284 1.48143C11.8622 2.0296 11.6667 2.67406 11.6667 3.33334C11.6677 4.21707 12.0193 5.0643 12.6441 5.68919C13.269 6.31408 14.1163 6.66561 15 6.66667ZM15 1.33333C15.3956 1.33333 15.7822 1.45063 16.1111 1.6704C16.44 1.89016 16.6964 2.20252 16.8478 2.56797C16.9991 2.93342 17.0387 3.33555 16.9616 3.72352C16.8844 4.11148 16.6939 4.46784 16.4142 4.74755C16.1345 5.02725 15.7781 5.21774 15.3902 5.29491C15.0022 5.37208 14.6001 5.33247 14.2346 5.18109C13.8692 5.02972 13.5568 4.77337 13.3371 4.44448C13.1173 4.11558 13 3.7289 13 3.33334C13 2.8029 13.2107 2.29419 13.5858 1.91912C13.9609 1.54405 14.4696 1.33333 15 1.33333Z" fill="white"/>
<path d="M26.3333 12H20.9999V11.3333C20.9989 10.4496 20.6473 9.60237 20.0224 8.97748C19.3975 8.35259 18.5503 8.00106 17.6666 8H12.3333C11.4495 8.00106 10.6023 8.35259 9.9774 8.97748C9.35251 9.60237 9.00098 10.4496 8.99992 11.3333V12H3.66659C2.78286 12.0011 1.93562 12.3526 1.31073 12.9775C0.68584 13.6024 0.334311 14.4496 0.333252 15.3333V22C0.333252 22.1768 0.40349 22.3464 0.528514 22.4714C0.653538 22.5964 0.823108 22.6667 0.999919 22.6667H11.6666C11.8434 22.6667 12.013 22.5964 12.138 22.4714C12.263 22.3464 12.3333 22.1768 12.3333 22V18.6667H17.6666V22C17.6666 22.1768 17.7368 22.3464 17.8618 22.4714C17.9869 22.5964 18.1564 22.6667 18.3333 22.6667H28.9999C29.1767 22.6667 29.3463 22.5964 29.4713 22.4714C29.5963 22.3464 29.6666 22.1768 29.6666 22V15.3333C29.6655 14.4496 29.314 13.6024 28.6891 12.9775C28.0642 12.3526 27.217 12.0011 26.3333 12ZM10.9999 21.3333H1.66659V15.3333C1.66659 14.8029 1.8773 14.2942 2.25237 13.9191C2.62744 13.544 3.13615 13.3333 3.66659 13.3333H8.99992C9.16318 13.3354 9.32554 13.3577 9.48325 13.4C9.91296 13.5116 10.2941 13.7612 10.5681 14.1105C10.8422 14.4598 10.9939 14.8894 10.9999 15.3333V21.3333ZM12.3333 17.3333V15.3333C12.325 14.6872 12.1323 14.0568 11.778 13.5164C11.4237 12.976 10.9225 12.548 10.3333 12.2827V11.3333C10.3333 10.8029 10.544 10.2942 10.919 9.91912C11.2941 9.54405 11.8028 9.33333 12.3333 9.33333H17.6666C18.197 9.33333 18.7057 9.54405 19.0808 9.91912C19.4559 10.2942 19.6666 10.8029 19.6666 11.3333V12.2827C19.0773 12.548 18.5761 12.976 18.2218 13.5164C17.8675 14.0568 17.6749 14.6872 17.6666 15.3333V17.3333H12.3333ZM28.3333 21.3333H18.9999V15.3333C19.005 14.8922 19.1545 14.4649 19.4255 14.1168C19.6965 13.7687 20.0742 13.5191 20.5006 13.406C20.5066 13.406 20.5106 13.4007 20.5166 13.3993C20.6743 13.3573 20.8367 13.3351 20.9999 13.3333H26.3333C26.8637 13.3333 27.3724 13.544 27.7475 13.9191C28.1225 14.2942 28.3333 14.8029 28.3333 15.3333V21.3333Z" fill="white"/>
</svg>
