<svg width="15" height="15" viewBox="0 0 15 15" fill="none" xmlns="http://www.w3.org/2000/svg">
<path fill-rule="evenodd" clip-rule="evenodd" d="M8.70924 0.114C8.43174 -3.35276e-08 8.07924 0 7.37499 0C6.67074 0 6.31899 -3.35276e-08 6.04074 0.114C5.67133 0.265658 5.37728 0.557824 5.22324 0.92625C5.15274 1.0935 5.12574 1.28925 5.11449 1.5735C5.10949 1.77945 5.05204 1.98073 4.94758 2.15829C4.84311 2.33585 4.69509 2.48384 4.51749 2.58825C4.33655 2.68883 4.13315 2.74211 3.92614 2.74316C3.71912 2.74421 3.51519 2.69299 3.33324 2.59425C3.07974 2.46075 2.89599 2.38725 2.71449 2.36325C2.31741 2.31111 1.9158 2.41785 1.59699 2.66025C1.35849 2.84175 1.18224 3.14475 0.830492 3.75C0.477992 4.35525 0.302492 4.6575 0.262742 4.95375C0.210242 5.34825 0.318243 5.74725 0.562743 6.063C0.673743 6.207 0.830493 6.32775 1.07274 6.47925C1.43049 6.702 1.65999 7.0815 1.65999 7.5C1.65999 7.9185 1.43049 8.298 1.07349 8.52C0.830493 8.67225 0.673742 8.793 0.561992 8.937C0.441305 9.09296 0.352719 9.27128 0.301356 9.46168C0.249992 9.65207 0.236868 9.85075 0.262742 10.0463C0.302492 10.3418 0.477992 10.6447 0.830492 11.25C1.18299 11.8553 1.35849 12.1575 1.59699 12.3397C1.91499 12.582 2.31699 12.6885 2.71449 12.6368C2.89599 12.6128 3.07974 12.5393 3.33324 12.4058C3.51529 12.3069 3.71935 12.2556 3.92651 12.2566C4.13367 12.2577 4.33721 12.311 4.51824 12.4117C4.88274 12.6217 5.09874 13.008 5.11449 13.4265C5.12574 13.7115 5.15274 13.9065 5.22324 14.0737C5.37624 14.4412 5.67024 14.7337 6.04074 14.886C6.31824 15 6.67074 15 7.37499 15C8.07924 15 8.43174 15 8.70924 14.886C9.07865 14.7343 9.37271 14.4422 9.52674 14.0737C9.59724 13.9065 9.62424 13.7115 9.63549 13.4265C9.65049 13.008 9.86724 12.621 10.2325 12.4117C10.4134 12.3112 10.6168 12.2579 10.8238 12.2568C11.0309 12.2558 11.2348 12.307 11.4167 12.4058C11.6702 12.5393 11.854 12.6128 12.0355 12.6368C12.433 12.6893 12.835 12.582 13.153 12.3397C13.3915 12.1582 13.5677 11.8553 13.9195 11.25C14.272 10.6447 14.4475 10.3425 14.4872 10.0463C14.513 9.85071 14.4998 9.65199 14.4483 9.4616C14.3968 9.2712 14.3081 9.0929 14.1872 8.937C14.0762 8.793 13.9195 8.67225 13.6772 8.52075C13.3195 8.298 13.09 7.9185 13.09 7.5C13.09 7.0815 13.3195 6.702 13.6765 6.48C13.9195 6.32775 14.0762 6.207 14.188 6.063C14.3087 5.90704 14.3973 5.72872 14.4486 5.53832C14.5 5.34793 14.5131 5.14924 14.4872 4.95375C14.4475 4.65825 14.272 4.35525 13.9195 3.75C13.567 3.14475 13.3915 2.8425 13.153 2.66025C12.8342 2.41785 12.4326 2.31111 12.0355 2.36325C11.854 2.38725 11.6702 2.46075 11.4167 2.59425C11.2347 2.69312 11.0306 2.74441 10.8235 2.74336C10.6163 2.74231 10.4128 2.68896 10.2317 2.58825C10.0543 2.48375 9.90641 2.33572 9.80208 2.15816C9.69775 1.98061 9.64042 1.77938 9.63549 1.5735C9.62424 1.2885 9.59724 1.0935 9.52674 0.92625C9.45051 0.743802 9.33907 0.578162 9.1988 0.438793C9.05853 0.299425 8.89218 0.189058 8.70924 0.114ZM7.37499 9.75C8.62749 9.75 9.64224 8.74275 9.64224 7.5C9.64224 6.25725 8.62674 5.25 7.37499 5.25C6.12249 5.25 5.10774 6.25725 5.10774 7.5C5.10774 8.74275 6.12324 9.75 7.37499 9.75Z" fill="#6C7293"/>
</svg>
